<?xml version="1.0" encoding="utf-8"?>
<!-- Generator: Adobe Illustrator 24.2.3, SVG Export Plug-In . SVG Version: 6.00 Build 0)  -->
<svg version="1.1" id="Layer_1" xmlns="http://www.w3.org/2000/svg" xmlns:xlink="http://www.w3.org/1999/xlink" x="0px" y="0px"
	 viewBox="0 0 125 40" style="enable-background:new 0 0 125 40;" xml:space="preserve">
<style type="text/css">
	.st0{fill:#FFFFFF;}
	.st1{fill-rule:evenodd;clip-rule:evenodd;fill:url(#SVGID_1_);}
	.st2{fill-rule:evenodd;clip-rule:evenodd;fill:#FFFFFF;}
</style>
<desc>Created with Sketch.</desc>
<g id="Page-1">
	<g id="Artboard">
		<g id="logo_applemusic_ondark">
			<g id="icons" transform="translate(37.000000, 13.000000)">
				<g id="Artboard-Copy-3_1_">
					<g id="US-UK_Apple_Music_lockup_RGB_blk_1_">
						<g id="_Group_4_1_">
							<g id="_Group_6_1_">
								<g id="_Group_7_1_">
									<path id="_Compound_Path_10_1_" class="st0" d="M7.8,9.2H3.4l-1.1,3.1H0.5L4.6,0.8h1.9l4.2,11.5H8.8L7.8,9.2z M3.8,7.7h3.5
										L5.6,2.7h0L3.8,7.7z"/>
									<path id="_Compound_Path_11_1_" class="st0" d="M19.7,8.1c0,2.6-1.4,4.3-3.5,4.3c-1.1,0.1-2.1-0.5-2.6-1.5h0v4.2h-1.7V3.9
										h1.7v1.4h0c0.5-1,1.6-1.5,2.7-1.5C18.3,3.8,19.7,5.5,19.7,8.1z M17.9,8.1c0-1.7-0.9-2.8-2.2-2.8c-1.3,0-2.2,1.1-2.2,2.8
										c0,1.7,0.9,2.8,2.2,2.8C17,10.9,17.9,9.8,17.9,8.1L17.9,8.1z"/>
									<path id="_Compound_Path_12_1_" class="st0" d="M28.9,8.1c0,2.6-1.4,4.3-3.5,4.3c-1.1,0.1-2.1-0.5-2.6-1.5h0v4.2H21V3.9
										h1.7v1.4h0c0.5-1,1.6-1.5,2.7-1.5C27.5,3.8,28.9,5.5,28.9,8.1z M27.2,8.1c0-1.7-0.9-2.8-2.2-2.8c-1.3,0-2.2,1.1-2.2,2.8
										c0,1.7,0.9,2.8,2.2,2.8C26.3,10.9,27.2,9.8,27.2,8.1L27.2,8.1z"/>
									<polygon id="_Compound_Path_13_1_" class="st0" points="30.3,0.8 32,0.8 32,12.3 30.3,12.3 									"/>
									<path id="_Compound_Path_14_1_" class="st0" d="M41,9.8c-0.4,1.6-1.9,2.7-3.6,2.6c-2.4,0-4-1.6-4-4.3
										c0-2.6,1.5-4.3,3.9-4.3c2.3,0,3.8,1.6,3.8,4.1v0.6h-5.9v0.1c-0.1,0.6,0.2,1.2,0.6,1.7c0.4,0.5,1,0.7,1.7,0.7
										c0.8,0.1,1.6-0.4,1.9-1.2H41z M35.2,7.3h4.2c0-0.6-0.2-1.1-0.6-1.5c-0.4-0.4-0.9-0.6-1.5-0.6c-0.6,0-1.1,0.2-1.5,0.6
										C35.4,6.2,35.2,6.7,35.2,7.3z"/>
									<polygon id="_Compound_Path_15_1_" class="st0" points="56,12.3 56,3.8 55.9,3.8 52.4,12.2 51.1,12.2 47.6,3.8 47.6,3.8 
										47.6,12.3 46,12.3 46,0.8 48,0.8 51.8,9.9 51.8,9.9 55.5,0.8 57.6,0.8 57.6,12.3 									"/>
									<path id="_Compound_Path_16_1_" class="st0" d="M66.8,12.3h-1.7v-1.4h0c-0.5,1-1.5,1.6-2.6,1.5c-0.8,0-1.6-0.3-2.2-0.9
										s-0.8-1.4-0.8-2.2V3.9h1.7v5.1c0,1.3,0.6,2,1.8,2c0.6,0,1.1-0.2,1.5-0.6c0.4-0.4,0.6-1,0.5-1.5V3.9h1.7L66.8,12.3z"/>
									<path id="_Compound_Path_17_1_" class="st0" d="M71.7,3.8c1.9,0,3.2,1,3.2,2.5h-1.6c-0.1-0.7-0.7-1.2-1.7-1.2
										c-0.9,0-1.6,0.4-1.6,1.1c0,0.5,0.4,0.8,1.3,1.1l1.4,0.3c1.7,0.4,2.3,1,2.3,2.3c0,1.5-1.4,2.6-3.5,2.6c-2,0-3.3-1-3.4-2.5
										h1.7c0.1,0.8,0.8,1.2,1.8,1.2c1,0,1.7-0.4,1.7-1.1c0-0.5-0.3-0.8-1.2-1l-1.5-0.4c-1.5-0.4-2.3-1.1-2.3-2.3
										C68.4,4.8,69.7,3.8,71.7,3.8z"/>
									<path id="_Compound_Path_18_1_" class="st0" d="M76.5,1.7c0-0.4,0.2-0.8,0.6-0.9c0.4-0.2,0.8-0.1,1.1,0.2
										c0.3,0.3,0.4,0.7,0.2,1.1c-0.2,0.4-0.5,0.6-0.9,0.6C76.9,2.7,76.5,2.2,76.5,1.7z M76.6,3.9h1.7v8.4h-1.7V3.9z"/>
									<path id="_Compound_Path_19_1_" class="st0" d="M85.7,6.8c-0.2-1-1-1.6-2-1.5c-1.3,0-2.2,1.1-2.2,2.9
										c0,1.8,0.9,2.9,2.2,2.9c1,0.1,1.8-0.6,2-1.5h1.7c-0.2,1.8-1.8,3.1-3.6,2.9c-2.4,0-4-1.6-4-4.3c0-2.6,1.6-4.3,3.9-4.3
										c1.8-0.2,3.4,1.2,3.6,3L85.7,6.8z"/>
								</g>
							</g>
						</g>
					</g>
				</g>
			</g>
		</g>
		<g>
			<g>
				
					<linearGradient id="SVGID_1_" gradientUnits="userSpaceOnUse" x1="16.4775" y1="5.7402" x2="16.4775" y2="37.8562" gradientTransform="matrix(1 0 0 -1 0 42)">
					<stop  offset="0" style="stop-color:#FA233B"/>
					<stop  offset="1" style="stop-color:#FB5C74"/>
				</linearGradient>
				<path class="st1" d="M33,13.7c0-0.4,0-0.8,0-1.2c0-0.3,0-0.7,0-1c0-0.7-0.1-1.5-0.2-2.2c-0.1-0.7-0.3-1.4-0.7-2.1
					c-0.3-0.6-0.8-1.2-1.3-1.8c-0.5-0.5-1.1-0.9-1.8-1.3C28.4,4,27.7,3.8,27,3.6c-0.7-0.1-1.4-0.2-2.2-0.2c-0.3,0-0.7,0-1,0
					c-0.4,0-0.8,0-1.2,0H10.3c-0.4,0-0.8,0-1.2,0c-0.3,0-0.7,0-1,0C7.4,3.5,6.7,3.5,6,3.6C5.3,3.8,4.6,4,3.9,4.3
					C3.3,4.7,2.7,5.1,2.2,5.6C1.6,6.1,1.2,6.7,0.9,7.3C0.5,8,0.3,8.7,0.2,9.4C0.1,10.1,0,10.8,0,11.6c0,0.3,0,0.7,0,1
					c0,0.4,0,0.8,0,1.2v12.3c0,0.4,0,0.8,0,1.2c0,0.3,0,0.7,0,1c0,0.7,0.1,1.5,0.2,2.2c0.1,0.7,0.3,1.4,0.7,2.1
					c0.3,0.6,0.8,1.2,1.3,1.8s1.1,0.9,1.8,1.3C4.6,35.8,5.2,36,6,36.2c0.7,0.1,1.4,0.2,2.2,0.2c0.3,0,0.7,0,1,0c0.4,0,0.8,0,1.2,0
					h12.3c0.4,0,0.8,0,1.2,0c0.3,0,0.7,0,1,0c0.7,0,1.5-0.1,2.2-0.2c0.7-0.1,1.4-0.3,2.1-0.7c0.6-0.3,1.2-0.8,1.8-1.3
					c0.5-0.5,0.9-1.1,1.3-1.8c0.3-0.7,0.6-1.3,0.7-2.1c0.1-0.7,0.2-1.4,0.2-2.2c0-0.3,0-0.7,0-1c0-0.4,0-0.8,0-1.2L33,13.7L33,13.7z
					"/>
			</g>
			<g id="Glyph_9_">
				<g>
					<path class="st2" d="M23.3,8.5c-0.1,0-0.8,0.1-0.9,0.1l-9.8,2l0,0c-0.3,0.1-0.5,0.1-0.6,0.3c-0.2,0.2-0.3,0.4-0.3,0.6
						c0,0.1,0,0.2,0,0.3c0,0,0,10,0,12.3c0,0.3,0,0.6-0.2,0.8c-0.2,0.2-0.4,0.3-0.7,0.4l-0.6,0.1c-0.8,0.2-1.3,0.3-1.8,0.5
						c-0.5,0.2-0.8,0.4-1.1,0.7c-0.5,0.6-0.8,1.3-0.7,2c0.1,0.6,0.3,1.2,0.8,1.6c0.3,0.3,0.7,0.5,1.2,0.6c0.5,0.1,1,0.1,1.8-0.1
						c0.4-0.1,0.8-0.2,1.1-0.4c0.4-0.2,0.7-0.5,0.9-0.8s0.4-0.7,0.5-1.1c0.1-0.4,0.1-0.8,0.1-1.2V16.5c0-0.6,0.2-0.7,0.6-0.8
						c0,0,8.1-1.6,8.5-1.7c0.5-0.1,0.8,0.1,0.8,0.6v7.3c0,0.3,0,0.6-0.2,0.8s-0.4,0.3-0.7,0.4c-0.2,0-0.4,0.1-0.6,0.1
						c-0.8,0.2-1.3,0.3-1.8,0.5c-0.5,0.2-0.8,0.4-1.1,0.7c-0.5,0.6-0.8,1.3-0.7,2c0.1,0.6,0.4,1.2,0.8,1.6c0.3,0.3,0.7,0.5,1.2,0.6
						c0.5,0.1,1,0.1,1.8-0.1c0.4-0.1,0.8-0.2,1.1-0.4c0.4-0.2,0.7-0.5,0.9-0.8c0.2-0.3,0.4-0.7,0.5-1.1c0.1-0.4,0.1-0.8,0.1-1.2V9.3
						C24.1,8.8,23.8,8.4,23.3,8.5z"/>
				</g>
			</g>
		</g>
	</g>
</g>
</svg>
