<?xml version="1.0" encoding="utf-8"?>
<!-- Generator: Adobe Illustrator 24.2.3, SVG Export Plug-In . SVG Version: 6.00 Build 0)  -->
<svg version="1.1" id="Layer_1" xmlns="http://www.w3.org/2000/svg" xmlns:xlink="http://www.w3.org/1999/xlink" x="0px" y="0px"
	 viewBox="0 0 391.1 140.7" style="enable-background:new 0 0 391.1 140.7;" xml:space="preserve">
<style type="text/css">
	.st0{fill:#FFFFFF;}
</style>
<g>
	<polygon class="st0" points="118.5,101 137.2,57.6 162.6,116.8 176.9,116.8 137.2,23.9 97.3,116.9 111.8,116.9 	"/>
	<polygon class="st0" points="228.7,116.9 235.4,101 254,57.6 279.4,116.8 293.8,116.8 254,23.9 214.2,116.9 	"/>
	<polygon class="st0" points="319.6,39.7 352.7,116.8 367,116.8 327.3,23.9 305.2,23.9 305.2,116.8 319.6,116.8 	"/>
	
		<rect x="351" y="26.6" transform="matrix(0.7071 -0.7071 0.7071 0.7071 81.2217 262.6132)" class="st0" width="13.3" height="13.3"/>
	<polygon class="st0" points="188.4,38.3 188.4,116.8 202.7,116.8 202.7,38.3 229.3,38.3 235.4,23.9 155.8,23.9 162,38.3 	"/>
	<polygon class="st0" points="71.5,116.8 85.9,116.8 46.1,23.9 46,24 46,23.9 24.1,23.9 24.1,38.3 37.8,38.3 	"/>
	
		<rect x="26.9" y="100.8" transform="matrix(0.7071 -0.7071 0.7071 0.7071 -66.1391 55.1934)" class="st0" width="13.3" height="13.3"/>
	<path class="st0" d="M0,0v140.7h391.1V0H0z M376.7,126.4H14.4v-112h362.4L376.7,126.4L376.7,126.4z"/>
</g>
</svg>
