<?xml version="1.0" encoding="utf-8"?>
<!-- Generator: Adobe Illustrator 24.2.3, SVG Export Plug-In . SVG Version: 6.00 Build 0)  -->
<svg version="1.1" id="Layer_1" xmlns="http://www.w3.org/2000/svg" xmlns:xlink="http://www.w3.org/1999/xlink" x="0px" y="0px"
	 viewBox="0 0 342.9 92.9" style="enable-background:new 0 0 342.9 92.9;" xml:space="preserve">
<style type="text/css">
	.st0{fill:#FFFFFF;}
</style>
<g>
	<polygon class="st0" points="73.2,92.9 87.7,92.9 94.4,77.1 113,33.7 138.4,92.9 152.8,92.9 113,0 	"/>
	<polygon class="st0" points="190,92.9 204.5,92.9 211.2,77.1 229.9,33.7 255.3,92.9 269.7,92.9 229.9,0 	"/>
	<polygon class="st0" points="342.9,92.9 303.2,0 281.1,0 281.1,92.9 295.5,92.9 295.5,15.8 328.5,92.9 	"/>
	
		<rect x="326.9" y="2.7" transform="matrix(0.7071 -0.7071 0.7071 0.7071 91.0345 238.576)" class="st0" width="13.3" height="13.3"/>
	<polygon class="st0" points="211.2,0 131.6,0 137.8,14.4 164.2,14.4 164.2,92.9 178.6,92.9 178.6,14.4 205.1,14.4 	"/>
	<polygon class="st0" points="21.9,0.1 21.9,0 0,0 0,14.4 13.7,14.4 47.4,92.9 61.7,92.9 22,0 	"/>
	
		<rect x="2.8" y="76.9" transform="matrix(0.7071 -0.7071 0.7071 0.7071 -56.3126 31.1198)" class="st0" width="13.3" height="13.3"/>
</g>
</svg>
