<svg xmlns="http://www.w3.org/2000/svg" xmlns:xlink="http://www.w3.org/1999/xlink" version="1.0" x="0px" y="0px" viewBox="0 0 25.411 25" style="enable-background:new 0 0 25.411 25;" xml:space="preserve" fill="white">
  <g>
    <path d="M2.702,3h20c0.551,0,1-0.449,1-1V1c0-0.551-0.449-1-1-1h-20c-0.551,0-1,0.449-1,1v1C1.702,2.551,2.151,3,2.702,3z"></path>
    <path d="M25.406,10.97l-1.704-4.881V5c0-0.551-0.449-1-1-1h-20c-0.551,0-1,0.449-1,1v1.089L0,10.97c0,0-0.017,1.024,1.015,1.024 c0.358,0,0.564-0.177,0.687-0.383V24c0,0.551,0.449,1,1,1h13V15h5v10h2c0.551,0,1-0.449,1-1V11.61 c0.135,0.206,0.37,0.384,0.798,0.384C25.532,11.994,25.406,10.97,25.406,10.97z M9.415,11.064c0,0.781-0.634,1.416-1.416,1.416 c-0.768,0-1.389-0.613-1.412-1.375c0.001-0.036,0.002-0.07,0.001-0.092C6.589,11.009,6.59,11.004,6.59,11H6.588 c-0.001-0.014-0.002-0.03-0.002-0.03L7.253,7h2.515l-0.359,3.97c0,0,0.001,0.016,0.002,0.03H9.408 C9.409,11.021,9.415,11.042,9.415,11.064z M3.295,12.48c-0.782,0-1.416-0.635-1.416-1.416c0-0.022,0.006-0.043,0.007-0.064H1.881 c0.001-0.014,0.001-0.03,0.001-0.03L3.061,7h2.515l-0.872,3.97c0,0,0.001,0.016,0.002,0.03H4.704 c0.001,0.021,0.007,0.042,0.007,0.064C4.711,11.845,4.077,12.48,3.295,12.48z M12.702,22h-8v-7h8V22z M12.703,12.48 c-0.782,0-1.416-0.635-1.416-1.416c0-0.022,0.006-0.043,0.007-0.064h-0.003c0-0.014,0-0.03,0-0.03L11.444,7h2.515l0.153,3.97 c0,0,0,0.016,0,0.03h-0.001c0,0.004,0.001,0.009,0.001,0.013c0,0.014,0.003,0.039,0.005,0.059 C14.114,11.849,13.482,12.48,12.703,12.48z M17.406,12.48c-0.778,0-1.409-0.629-1.415-1.405c0.001-0.018,0.003-0.04,0.004-0.054 c0.001-0.007,0.002-0.014,0.002-0.021h-0.002c0-0.014,0-0.03,0-0.03L15.636,7h2.516l0.667,3.97c0,0,0.002,0.016,0.003,0.03h-0.007 c0.001,0.021,0.007,0.042,0.007,0.064C18.822,11.845,18.188,12.48,17.406,12.48z M22.093,12.48c-0.762,0-1.379-0.604-1.41-1.358 c0.015-0.091,0.017-0.152,0.017-0.152L19.828,7h2.516l1.181,3.97c0,0,0,0.016,0,0.03h-0.022c0.001,0.021,0.007,0.042,0.007,0.064 C23.509,11.845,22.875,12.48,22.093,12.48z"></path>
  </g>
</svg>