<?xml version="1.0" encoding="utf-8"?>
<!-- Generator: Adobe Illustrator 24.1.0, SVG Export Plug-In . SVG Version: 6.00 Build 0)  -->
<svg version="1.2" baseProfile="tiny" id="logos" xmlns="http://www.w3.org/2000/svg" xmlns:xlink="http://www.w3.org/1999/xlink"
	 x="0px" y="0px" viewBox="0 0 125 18.2" xml:space="preserve">
<g>
	<g>
		<g>
			<g>
				<path id="lozenge-path" fill="#FF0000" d="M25.4,2.8c-0.3-1.1-1.2-2-2.3-2.3C21.1,0,13,0,13,0S4.9,0,2.8,0.5
					c-1.1,0.3-2,1.2-2.3,2.3C0,4.9,0,9.1,0,9.1s0,4.2,0.5,6.2c0.3,1.1,1.2,2,2.3,2.3c2,0.5,10.1,0.5,10.1,0.5s8.1,0,10.1-0.5
					c1.1-0.3,2-1.2,2.3-2.3c0.5-2,0.5-6.2,0.5-6.2S26,4.9,25.4,2.8z"/>
				<polygon id="play-polygon" fill="#FFFFFF" points="10.4,13 17.1,9.1 10.4,5.2 				"/>
			</g>
			<g>
				<g id="youtube-paths">
					<path d="M37.7,16.5c-0.5-0.3-0.9-0.9-1.1-1.6s-0.3-1.7-0.3-2.9v-1.7c0-1.2,0.1-2.2,0.4-3s0.6-1.3,1.2-1.6
						c0.5-0.3,1.2-0.5,2.1-0.5c0.8,0,1.5,0.2,2,0.5s0.9,0.9,1.1,1.6c0.2,0.7,0.4,1.7,0.4,2.9V12c0,1.2-0.1,2.2-0.3,2.9
						s-0.6,1.3-1.1,1.6c-0.5,0.3-1.2,0.5-2.1,0.5C38.9,17,38.2,16.9,37.7,16.5z M40.5,14.7c0.1-0.4,0.2-1,0.2-1.8V9.4
						c0-0.8-0.1-1.4-0.2-1.8C40.4,7.2,40.2,7,39.8,7c-0.3,0-0.6,0.2-0.7,0.6c-0.1,0.4-0.2,1-0.2,1.8v3.5c0,0.8,0.1,1.4,0.2,1.8
						c0.1,0.4,0.4,0.6,0.7,0.6C40.2,15.3,40.4,15.1,40.5,14.7z"/>
					<path d="M77.1,12v0.6c0,0.7,0,1.3,0.1,1.6c0,0.4,0.1,0.6,0.3,0.8c0.1,0.2,0.3,0.3,0.6,0.3c0.4,0,0.6-0.1,0.8-0.4
						c0.1-0.3,0.2-0.8,0.2-1.5l2.2,0.1c0,0.1,0,0.2,0,0.4c0,1.1-0.3,1.8-0.9,2.4S79,17,78,17c-1.3,0-2.1-0.4-2.7-1.2
						c-0.5-0.8-0.8-2-0.8-3.7v-2c0-1.7,0.3-3,0.8-3.7c0.5-0.8,1.4-1.2,2.7-1.2c0.9,0,1.6,0.2,2,0.5s0.8,0.8,1,1.5
						c0.2,0.7,0.3,1.6,0.3,2.8V12L77.1,12C77.1,12,77.1,12,77.1,12z M77.4,7.2c-0.1,0.2-0.2,0.4-0.3,0.8s-0.1,0.9-0.1,1.7v0.8H79
						V9.7c0-0.7,0-1.3-0.1-1.7c-0.1-0.4-0.1-0.6-0.3-0.8C78.5,7.1,78.3,7,78,7C77.7,7,77.5,7.1,77.4,7.2z"/>
					<path id="XMLID_41_" d="M31.4,11.8L28.5,1.3h2.5l1,4.8c0.3,1.2,0.5,2.2,0.6,3h0.1c0.1-0.6,0.3-1.6,0.6-3l1.1-4.8h2.5L34,11.8v5
						h-2.5C31.4,16.9,31.4,11.8,31.4,11.8z"/>
					<path id="XMLID_38_" d="M51.6,5.5v11.4h-2l-0.2-1.4h-0.1C48.8,16.5,48,17,46.9,17c-0.8,0-1.3-0.2-1.7-0.7S44.7,15,44.7,14V5.5
						h2.6v8.4c0,0.5,0.1,0.9,0.2,1.1s0.3,0.3,0.6,0.3c0.2,0,0.4-0.1,0.6-0.2s0.4-0.3,0.5-0.5v-9H51.6z"/>
					<path id="XMLID_36_" d="M64.7,5.5v11.4h-2l-0.2-1.4h-0.1C61.9,16.5,61.1,17,60,17c-0.8,0-1.3-0.2-1.7-0.7S57.8,15,57.8,14V5.5
						h2.6v8.4c0,0.5,0.1,0.9,0.2,1.1s0.3,0.3,0.6,0.3c0.2,0,0.4-0.1,0.6-0.2s0.4-0.3,0.5-0.5v-9H64.7z"/>
					<path id="XMLID_35_" d="M58.6,3.3H56v13.5h-2.5V3.3H51V1.3h7.6L58.6,3.3C58.6,3.3,58.6,3.3,58.6,3.3z"/>
					<path d="M73.2,7.3c-0.2-0.7-0.4-1.2-0.8-1.6c-0.3-0.3-0.8-0.5-1.4-0.5c-0.5,0-0.9,0.1-1.3,0.4c-0.4,0.3-0.7,0.6-0.9,1h0v-6
						h-2.5v16.1h2.1l0.3-1.1h0.1c0.2,0.4,0.5,0.7,0.9,0.9c0.4,0.2,0.8,0.3,1.3,0.3c0.9,0,1.5-0.4,1.9-1.2c0.4-0.8,0.6-2,0.6-3.7
						v-1.8C73.4,9,73.4,8,73.2,7.3z M70.9,11.9c0,0.8,0,1.5-0.1,1.9c-0.1,0.5-0.2,0.8-0.3,1s-0.4,0.3-0.6,0.3c-0.2,0-0.4,0-0.6-0.1
						c-0.2-0.1-0.3-0.2-0.4-0.4V8.1c0.1-0.3,0.2-0.6,0.4-0.8c0.2-0.2,0.4-0.3,0.7-0.3c0.3,0,0.5,0.1,0.6,0.3c0.1,0.2,0.2,0.5,0.3,1
						c0.1,0.5,0.1,1.2,0.1,2.1L70.9,11.9L70.9,11.9L70.9,11.9z"/>
				</g>
			</g>
		</g>
		<polygon points="88.3,1.3 84.8,1.3 84.8,17 87.1,17 87.1,4.2 89.6,17 91.7,17 94.3,4 94.3,17 96.5,17 96.5,1.3 92.9,1.3 
			90.7,13.7 		"/>
		<path d="M103.2,17h1.8V5.5h-2.4v9.1c-0.4,0.7-1.9,1.3-1.9-0.1s0-9,0-9h-2.4c0,0,0,7.4,0,9.4s2.7,3.7,4.5,0.8L103.2,17z"/>
		<rect x="114.4" y="5.5" width="2.3" height="11.6"/>
		<path d="M115.6,4.1L115.6,4.1c-0.8,0-1.4-0.6-1.4-1.4V2.4c0-0.8,0.6-1.4,1.4-1.4l0,0c0.8,0,1.4,0.6,1.4,1.4v0.3
			C117.1,3.5,116.4,4.1,115.6,4.1z"/>
		<path d="M110.8,9.2h2c0.1-1,0.1-3.9-3-3.9c-2.6,0-3.3,1.6-3.3,3.1c0,1.5,0.7,2.5,2.8,4.1c1.8,0.9,1.9,3.1,0.4,3.1
			c-0.7,0-1.1-0.5-1.1-1.1s0-1,0-1h-2.1c0,0,0,0.9,0,1.2c0,1,0.7,2.6,3.1,2.6c2.4,0,3.3-1.4,3.3-3.5s-4.4-4.2-4.4-5.6
			c0-1.7,2.2-1.5,2.2-0.3L110.8,9.2z"/>
		<path d="M120.9,8.2c-0.2,2.6,0,4.7,0,5.9c0.1,1.7,1.9,1.7,1.9,0c0-1.2,0-1.3,0-1.3h2.1c0,2.3-0.8,4.2-3.1,4.2
			c-2.7,0-3.5-1.9-3.5-3.9s0-3.4,0-3.4c0-2.7,1.2-4.5,3.4-4.5c2.9,0,3,2.1,3,3.1c0,1,0,1.3,0,1.3l-2,0.2c0,0,0-0.5,0-1.6
			C122.9,7.1,121.5,6.1,120.9,8.2z"/>
	</g>
</g>
</svg>
